<svg xmlns="http://www.w3.org/2000/svg" width="16" height="10" viewBox="0 0 16 10">
  <defs>
    <style>
      .cls-1 {
        fill: #fff;
        fill-rule: evenodd;
      }
    </style>
  </defs>
  <path id="arrow_left" data-name="arrow left" class="cls-1" d="M1958.49,1415.9l5.94,3.92a1.1,1.1,0,0,0,1.52-.3,1.071,1.071,0,0,0-.3-1.5l-2.94-1.94h10.19a1.08,1.08,0,1,0,0-2.16h-10.19l2.94-1.94a1.071,1.071,0,0,0,.3-1.5,1.1,1.1,0,0,0-.91-0.48,1.139,1.139,0,0,0-.61.18l-5.94,3.92A1.072,1.072,0,0,0,1958.49,1415.9Z" transform="translate(-1958 -1410)"/>
</svg>
