<svg xmlns="http://www.w3.org/2000/svg" width="29.22" height="29.41" viewBox="0 0 29.22 29.41">
  <defs>
    <style>
      .cls-1 {
        fill: #919191;
        fill-rule: evenodd;
      }
    </style>
  </defs>
  <path id="doc_doc_icon" data-name="doc doc icon" class="cls-1" d="M1392.23,1665.47a0.936,0.936,0,0,0-.04-0.16,0.142,0.142,0,0,0-.02-0.06,0.619,0.619,0,0,0-.11-0.17c0-.01,0-0.01-0.01-0.01l-3.47-3.49v-3.43c0-.01-0.01-0.02-0.01-0.03a0.508,0.508,0,0,0-.03-0.17,0.257,0.257,0,0,1-.02-0.05,0.567,0.567,0,0,0-.12-0.18l-5.48-5.52a0.657,0.657,0,0,0-.17-0.12,0.2,0.2,0,0,1-.06-0.02,0.758,0.758,0,0,0-.16-0.03c-0.01,0-.03-0.01-0.04-0.01h-15.22a0.615,0.615,0,0,0-.61.62v8.94l-3.47,3.49-0.01.01a0.619,0.619,0,0,0-.11.17c-0.01.02-.01,0.04-0.02,0.06a0.415,0.415,0,0,0-.03.16,0.227,0.227,0,0,0-.01.04v11.64a0.615,0.615,0,0,0,.61.62h3.04v3.06a0.606,0.606,0,0,0,.61.61h20.7a0.606,0.606,0,0,0,.61-0.61v-3.06h3.05a0.613,0.613,0,0,0,.6-0.62v-11.68h0Zm-2.08-.58h-1.57v-1.58Zm-3.65-7.35h-3.4v-3.43Zm-18.62-4.29h14v4.9a0.615,0.615,0,0,0,.61.62h4.87v6.12h-19.48v-11.64Zm-1.22,10.06v1.58h-1.57Zm20.7,16.91h-19.48v-2.45h19.48v2.45Zm3.66-3.68h-26.79v-10.42h26.79v10.42Zm0,0-19.38-8.6h-1.84v7.37h1.83a2.546,2.546,0,0,0,2.15-.96,5.5,5.5,0,0,0,0-5.44,2.507,2.507,0,0,0-2.14-.97h0Zm1.5,4.83a2.351,2.351,0,0,1-.33.8,1.507,1.507,0,0,1-.52.49,1.332,1.332,0,0,1-.65.16h-0.59v-5.19h0.59a1.332,1.332,0,0,1,.65.16,1.507,1.507,0,0,1,.52.49,2.533,2.533,0,0,1,.33.81,4.865,4.865,0,0,1,.12,1.14,4.805,4.805,0,0,1-.12,1.14h0Zm0,0,10-3.06a1.691,1.691,0,0,1,.46-0.58,1.083,1.083,0,0,1,.66-0.21,1.273,1.273,0,0,1,1.09.61l0.72-.87a1.97,1.97,0,0,0-.78-0.68,2.589,2.589,0,0,0-1.11-.23,2.344,2.344,0,0,0-1.11.28,2.729,2.729,0,0,0-.85.81,3.862,3.862,0,0,0-.55,1.23,6.458,6.458,0,0,0,0,3.11,4.138,4.138,0,0,0,.54,1.22,2.432,2.432,0,0,0,.85.81,2.152,2.152,0,0,0,1.12.29,2.186,2.186,0,0,0,1.14-.27,2.387,2.387,0,0,0,.74-0.71l-0.72-.84a1.748,1.748,0,0,1-.44.46,1.06,1.06,0,0,1-.62.19,1.1,1.1,0,0,1-.67-0.22,1.6,1.6,0,0,1-.47-0.58,2.9,2.9,0,0,1-.28-0.86,5.834,5.834,0,0,1-.09-1.04,5.9,5.9,0,0,1,.09-1.06,2.9,2.9,0,0,1,.28-0.86h0Zm0,0-3.2-.9a2.458,2.458,0,0,0-.83-0.78,2.34,2.34,0,0,0-2.22,0,2.37,2.37,0,0,0-.83.78,3.874,3.874,0,0,0-.52,1.22,7.266,7.266,0,0,0,.01,3.17,3.835,3.835,0,0,0,.52,1.23,2.5,2.5,0,0,0,.83.79,2.119,2.119,0,0,0,1.1.28,2.181,2.181,0,0,0,1.11-.28,2.594,2.594,0,0,0,.83-0.79,3.835,3.835,0,0,0,.52-1.23,7.068,7.068,0,0,0,0-3.17,3.874,3.874,0,0,0-.52-1.22h0Zm-0.66,3.86a3.228,3.228,0,0,1-.26.86,1.61,1.61,0,0,1-.42.58,0.985,0.985,0,0,1-1.19,0,1.757,1.757,0,0,1-.43-0.58,3.656,3.656,0,0,1-.25-0.86,7,7,0,0,1,0-2.11,3.656,3.656,0,0,1,.25-0.86,1.573,1.573,0,0,1,.43-0.56,0.934,0.934,0,0,1,1.18,0,1.45,1.45,0,0,1,.42.56,3.228,3.228,0,0,1,.26.86,5.866,5.866,0,0,1,.09,1.05,7.027,7.027,0,0,1-.08,1.06h0Zm0,0" transform="translate(-1363 -1652.03)"/>
</svg>
