<?xml version="1.0" encoding="utf-8"?>
<!-- Generator: Adobe Illustrator 19.0.0, SVG Export Plug-In . SVG Version: 6.00 Build 0)  -->
<svg version="1.1" id="Layer_1" xmlns="http://www.w3.org/2000/svg" xmlns:xlink="http://www.w3.org/1999/xlink" x="0px" y="0px"
	 viewBox="0 10 80.6 80.7" style="enable-background:new 0 10 80.6 80.7;" xml:space="preserve">
<path d="M17.3,90.4l22.1-17c0.5-0.4,1.3-0.4,1.8,0l22.1,17c1.1,0.9,2.7-0.2,2.3-1.5L57,61c-0.2-0.6,0-1.2,0.5-1.5L80,42.1
	c1.1-0.8,0.5-2.5-0.9-2.5H51.5c-0.6,0-1.2-0.4-1.4-1L41.7,11c-0.4-1.4-2.4-1.4-2.8,0l-8.4,27.6c-0.2,0.6-0.8,1-1.4,1H1.5
	c-1.4,0-2,1.7-0.9,2.5l22.5,17.3c0.5,0.4,0.7,1,0.5,1.5L15,88.9C14.6,90.2,16.2,91.3,17.3,90.4z"/>
</svg>
