<svg xmlns="http://www.w3.org/2000/svg" width="11" height="9" viewBox="0 0 11 9">
  <defs>
    <style>
      .cls-1 {
        fill: #fff;
        fill-rule: evenodd;
      }
    </style>
  </defs>
  <path id="tick" class="cls-1" d="M2173.85,533.9l-1.74-1.747a0.526,0.526,0,0,0-.74,0l-4.08,4.094-1.66-1.676a0.526,0.526,0,0,0-.74,0l-1.74,1.747a0.525,0.525,0,0,0,0,.735l1.97,1.975c0.02,0.027.04,0.051,0.06,0.075l1.74,1.746a0.524,0.524,0,0,0,.37.152,0.484,0.484,0,0,0,.36-0.152l6.2-6.214A0.525,0.525,0,0,0,2173.85,533.9Z" transform="translate(-2163 -532)"/>
</svg>
