<?xml version="1.0" encoding="utf-8"?>
<!-- Generator: Adobe Illustrator 19.0.0, SVG Export Plug-In . SVG Version: 6.00 Build 0)  -->
<svg version="1.1" id="Layer_1" xmlns="http://www.w3.org/2000/svg" xmlns:xlink="http://www.w3.org/1999/xlink" x="0px" y="0px"
	 viewBox="0 0 80 80" style="enable-background:new 0 0 80 80;" xml:space="preserve">
<style type="text/css">
	.st0{fill:#010101;}
</style>
<path id="XMLID_3_" class="st0" d="M73.7,31.9c-1.9-1.4-3.8-2.8-4.4-4.1c-0.6-1.4-0.2-3.8,0.2-6.2c0.6-3.7,1.2-7.5-1.2-9.9
	s-6.2-1.8-9.9-1.2c-2.4,0.4-4.8,0.7-6.2,0.2c-1.3-0.5-2.7-2.5-4.1-4.4C46,3.3,43.5,0,40,0s-6,3.3-8.1,6.3c-1.4,1.9-2.8,3.8-4.1,4.4
	c-1.4,0.6-3.8,0.2-6.2-0.2c-3.7-0.6-7.5-1.2-9.9,1.2c-2.4,2.4-1.8,6.2-1.2,9.9c0.4,2.4,0.7,4.8,0.2,6.2c-0.5,1.3-2.5,2.7-4.4,4.1
	C3.3,34,0,36.5,0,40s3.3,6,6.3,8.1c1.9,1.4,3.8,2.8,4.4,4.1c0.6,1.4,0.2,3.8-0.2,6.2c-0.6,3.7-1.2,7.5,1.2,9.9s6.2,1.8,9.9,1.2
	c2.4-0.4,4.8-0.7,6.2-0.2c1.3,0.5,2.7,2.5,4.1,4.4c2.1,3,4.6,6.3,8.1,6.3s6-3.3,8.1-6.3c1.4-1.9,2.8-3.8,4.1-4.4
	c1.4-0.6,3.8-0.2,6.2,0.2c3.7,0.6,7.5,1.2,9.9-1.2c2.4-2.4,1.8-6.2,1.2-9.9c-0.4-2.4-0.7-4.8-0.2-6.2c0.5-1.3,2.5-2.7,4.4-4.1
	c3-2.1,6.3-4.6,6.3-8.1C80,36.5,76.7,34,73.7,31.9z M71.5,45.1c-2.3,1.7-4.7,3.4-5.6,5.6c-1,2.3-0.5,5.3-0.1,8.2
	c0.4,2.7,0.9,5.7-0.2,6.8c-1.1,1.1-4.1,0.6-6.8,0.2c-2.9-0.4-5.9-0.9-8.2,0.1c-2.2,0.9-4,3.3-5.6,5.6c-1.6,2.2-3.5,4.8-5.1,4.8
	c-1.7,0-3.5-2.5-5.1-4.8c-1.7-2.3-3.4-4.7-5.6-5.6c-1-0.4-2.1-0.6-3.3-0.6c-1.6,0-3.2,0.3-4.8,0.5c-2.7,0.4-5.7,0.9-6.8-0.2
	s-0.6-4.1-0.2-6.8C14.5,56,15,53,14,50.7c-0.9-2.2-3.3-4-5.6-5.6c-2.2-1.6-4.8-3.5-4.8-5.1s2.5-3.5,4.8-5.1c2.3-1.7,4.7-3.4,5.6-5.6
	c1-2.3,0.5-5.3,0.1-8.2c-0.4-2.7-0.9-5.7,0.2-6.8c1.1-1.1,4.1-0.6,6.7-0.2c2.9,0.4,5.9,0.9,8.2-0.1c2.2-0.9,4-3.3,5.6-5.6
	c1.6-2.2,3.5-4.8,5.1-4.8c1.7,0,3.5,2.5,5.1,4.8c1.7,2.3,3.4,4.7,5.6,5.6c2.3,1,5.3,0.5,8.2,0.1c2.7-0.4,5.7-0.9,6.8,0.2
	s0.6,4.1,0.2,6.7c-0.4,2.9-0.9,5.9,0.1,8.2c0.9,2.2,3.3,4,5.6,5.6c2.2,1.6,4.8,3.5,4.8,5.1C76.3,41.7,73.8,43.5,71.5,45.1z M40.1,17
	C27.4,17,17,27.4,17,40.1s10.4,23.1,23.1,23.1c12.7,0,23.1-10.4,23.1-23.1C63.2,27.4,52.8,17,40.1,17z M40.1,59.4
	c-10.7,0-19.3-8.7-19.3-19.3c0-10.7,8.7-19.3,19.3-19.3c10.7,0,19.3,8.7,19.3,19.3C59.4,50.8,50.8,59.4,40.1,59.4z M40.1,27.6
	c-6.9,0-12.5,5.6-12.5,12.5s5.6,12.5,12.5,12.5S52.6,47,52.6,40.1S47,27.6,40.1,27.6z M40.1,48.8c-4.8,0-8.7-3.9-8.7-8.7
	c0-4.8,3.9-8.7,8.7-8.7s8.7,3.9,8.7,8.7S44.9,48.8,40.1,48.8z"/>
</svg>
