<svg xmlns="http://www.w3.org/2000/svg" width="29.22" height="29.41" viewBox="0 0 29.22 29.41"><defs><style>.cls-1{fill:#919191;fill-rule:evenodd}</style></defs><path id="doc_doc_icon" data-name="doc doc icon" class="cls-1" d="M1392.23 1665.47a.936.936 0 0 0-.04-.16.142.142 0 0 0-.02-.06.619.619 0 0 0-.11-.17c0-.01 0-.01-.01-.01l-3.47-3.49v-3.43c0-.01-.01-.02-.01-.03a.508.508 0 0 0-.03-.17.257.257 0 0 1-.02-.05.567.567 0 0 0-.12-.18l-5.48-5.52a.657.657 0 0 0-.17-.12.2.2 0 0 1-.06-.02.758.758 0 0 0-.16-.03c-.01 0-.03-.01-.04-.01h-15.22a.615.615 0 0 0-.61.62v8.94l-3.47 3.49-.01.01a.619.619 0 0 0-.11.17c-.01.02-.01.04-.02.06a.415.415 0 0 0-.03.16.227.227 0 0 0-.01.04v11.64a.615.615 0 0 0 .61.62h3.04v3.06a.606.606 0 0 0 .61.61h20.7a.606.606 0 0 0 .61-.61v-3.06h3.05a.613.613 0 0 0 .6-.62v-11.68zm-2.08-.58h-1.57v-1.58zm-3.65-7.35h-3.4v-3.43zm-18.62-4.29h14v4.9a.615.615 0 0 0 .61.62h4.87v6.12h-19.48v-11.64zm-1.22 10.06v1.58h-1.57zm20.7 16.91h-19.48v-2.45h19.48v2.45zm3.66-3.68h-26.79v-10.42h26.79v10.42zm0 0l-19.38-8.6h-1.84v7.37h1.83a2.546 2.546 0 0 0 2.15-.96 5.5 5.5 0 0 0 0-5.44 2.507 2.507 0 0 0-2.14-.97zm1.5 4.83a2.351 2.351 0 0 1-.33.8 1.507 1.507 0 0 1-.52.49 1.332 1.332 0 0 1-.65.16h-.59v-5.19h.59a1.332 1.332 0 0 1 .65.16 1.507 1.507 0 0 1 .52.49 2.533 2.533 0 0 1 .33.81 4.865 4.865 0 0 1 .12 1.14 4.805 4.805 0 0 1-.12 1.14zm0 0l10-3.06a1.691 1.691 0 0 1 .46-.58 1.083 1.083 0 0 1 .66-.21 1.273 1.273 0 0 1 1.09.61l.72-.87a1.97 1.97 0 0 0-.78-.68 2.589 2.589 0 0 0-1.11-.23 2.344 2.344 0 0 0-1.11.28 2.729 2.729 0 0 0-.85.81 3.862 3.862 0 0 0-.55 1.23 6.458 6.458 0 0 0 0 3.11 4.138 4.138 0 0 0 .54 1.22 2.432 2.432 0 0 0 .85.81 2.152 2.152 0 0 0 1.12.29 2.186 2.186 0 0 0 1.14-.27 2.387 2.387 0 0 0 .74-.71l-.72-.84a1.748 1.748 0 0 1-.44.46 1.06 1.06 0 0 1-.62.19 1.1 1.1 0 0 1-.67-.22 1.6 1.6 0 0 1-.47-.58 2.9 2.9 0 0 1-.28-.86 5.834 5.834 0 0 1-.09-1.04 5.9 5.9 0 0 1 .09-1.06 2.9 2.9 0 0 1 .28-.86zm0 0l-3.2-.9a2.458 2.458 0 0 0-.83-.78 2.34 2.34 0 0 0-2.22 0 2.37 2.37 0 0 0-.83.78 3.874 3.874 0 0 0-.52 1.22 7.266 7.266 0 0 0 .01 3.17 3.835 3.835 0 0 0 .52 1.23 2.5 2.5 0 0 0 .83.79 2.119 2.119 0 0 0 1.1.28 2.181 2.181 0 0 0 1.11-.28 2.594 2.594 0 0 0 .83-.79 3.835 3.835 0 0 0 .52-1.23 7.068 7.068 0 0 0 0-3.17 3.874 3.874 0 0 0-.52-1.22zm-.66 3.86a3.228 3.228 0 0 1-.26.86 1.61 1.61 0 0 1-.42.58.985.985 0 0 1-1.19 0 1.757 1.757 0 0 1-.43-.58 3.656 3.656 0 0 1-.25-.86 7 7 0 0 1 0-2.11 3.656 3.656 0 0 1 .25-.86 1.573 1.573 0 0 1 .43-.56.934.934 0 0 1 1.18 0 1.45 1.45 0 0 1 .42.56 3.228 3.228 0 0 1 .26.86 5.866 5.866 0 0 1 .09 1.05 7.027 7.027 0 0 1-.08 1.06zm0 0" transform="translate(-1363 -1652.03)"/></svg>