<svg xmlns="http://www.w3.org/2000/svg" width="14" height="13" viewBox="0 0 14 13">
  <defs>
    <style>
      .cls-1 {
        fill: #919191;
        fill-rule: evenodd;
      }
    </style>
  </defs>
  <path id="external_link_icon" data-name="external link icon" class="cls-1" d="M1355.35,1874h-4.1a0.626,0.626,0,0,0-.64.61,0.634,0.634,0,0,0,.64.62h2.54l-6.2,5.89a0.587,0.587,0,0,0,0,.86,0.635,0.635,0,0,0,.46.19,0.613,0.613,0,0,0,.45-0.19l6.21-5.88v2.41a0.646,0.646,0,0,0,1.29,0v-3.9a0.628,0.628,0,0,0-.65-0.61h0Zm0,0-2.64,5.12a0.628,0.628,0,0,0-.65.61v6.04h-8.77v-8.33h6.74a0.611,0.611,0,1,0,0-1.22h-7.38a0.628,0.628,0,0,0-.65.61v9.55a0.636,0.636,0,0,0,.65.62h10.06a0.634,0.634,0,0,0,.64-0.62v-6.65a0.626,0.626,0,0,0-.64-0.61h0Zm0,0" transform="translate(-1342 -1874)"/>
</svg>
