<svg xmlns="http://www.w3.org/2000/svg" width="16.97" height="25.09" viewBox="0 0 16.97 25.09">
  <defs>
    <style>
      .cls-1 {
        fill: #fff;
        fill-rule: evenodd;
      }
    </style>
  </defs>
  <path id="ask_sign_icon" data-name="ask sign icon" class="cls-1" d="M1459.5,1483.43m0.92-29.43c-4.92,0-9.41,3.86-9.41,8.61a2.254,2.254,0,0,0,2.78,1.99,2.818,2.818,0,0,0,2.6-2.52,4.186,4.186,0,0,1,4.03-3.92,3.271,3.271,0,0,1,3.65,3.15,4.188,4.188,0,0,1-3.65,3.91,2.708,2.708,0,0,0-2.34,2.49v4.22a1.708,1.708,0,0,0,2.34,1.55,2.913,2.913,0,0,0,2.21-2.58v-2.24a9.709,9.709,0,0,0,3.78-3.09,8.006,8.006,0,0,0,1.57-4.65c0-3.82-3.2-6.92-7.56-6.92h0Zm1.46,13.78a0.759,0.759,0,0,0-.5.67v2.73a1.256,1.256,0,0,1-.96,1.11,0.731,0.731,0,0,1-.99-0.67v-4.15a1.165,1.165,0,0,1,.99-1.06,5.609,5.609,0,0,0,4.81-5.21,4.377,4.377,0,0,0-4.81-4.23c-2.94.12-5.5,2.48-5.5,5.25a1.21,1.21,0,0,1-1.13,1.09,0.962,0.962,0,0,1-1.17-.86c0-3.94,3.69-7.2,7.8-7.26,3.72-.06,6.49,2.56,6.49,5.84a7.6,7.6,0,0,1-5.03,6.75h0Zm-0.88,1.98-0.58,4.79a3.179,3.179,0,0,0-2.34,2.77v0.25c0,1.18,1.07,1.8,2.34,1.39a3.2,3.2,0,0,0,2.21-2.74v-0.24a1.579,1.579,0,0,0-2.21-1.43h0Zm0.96,2.04a1.383,1.383,0,0,1-.96,1.18,0.689,0.689,0,0,1-.99-0.6v-0.25a1.368,1.368,0,0,1,.99-1.18,0.676,0.676,0,0,1,.96.61v0.24Zm-0.89,3.08" transform="translate(-1451 -1454)"/>
</svg>
