<svg xmlns="http://www.w3.org/2000/svg" width="21" height="19" viewBox="0 0 21 19"><defs><style>.cls-1{fill:#f0c001;fill-rule:evenodd}</style></defs><path id="Shape_18_copy" data-name="Shape 18 copy" class="cls-1" d="M308.446 1409.76h-2.883l.657-2.86a1.553 1.553 0 1 0-3.029-.69l-.817 3.55H299.2l.657-2.86a1.553 1.553 0 1 0-3.029-.69l-.817 3.55h-3.864a1.561 1.561 0 0 0-1.554 1.56 1.559 1.559 0 0 0 1.554 1.55h3.149l-.748 3.26h-3.992a1.558 1.558 0 0 0-1.554 1.55 1.56 1.56 0 0 0 1.554 1.56h3.277l-.657 2.86a1.557 1.557 0 0 0 1.167 1.86 1.556 1.556 0 0 0 1.862-1.17l.817-3.55h3.178l-.657 2.86a1.557 1.557 0 0 0 1.167 1.86 1.556 1.556 0 0 0 1.862-1.17l.817-3.55h3.469a1.561 1.561 0 0 0 1.555-1.56 1.559 1.559 0 0 0-1.555-1.55H304.1l.749-3.26h3.6a1.558 1.558 0 0 0 1.554-1.55 1.56 1.56 0 0 0-1.557-1.56zm-7.535 6.37h-3.176l.748-3.26h3.177z" transform="translate(-289 -1405)"/></svg>