<svg xmlns="http://www.w3.org/2000/svg" width="29.25" height="29.44" viewBox="0 0 29.25 29.44"><defs><style>.cls-1{fill:#919191;fill-rule:evenodd}</style></defs><path id="doc_pdf_icon" data-name="doc pdf icon" class="cls-1" d="M1392.98 1605.45a.453.453 0 0 0-.03-.16c-.01-.02-.01-.04-.02-.06a.657.657 0 0 0-.12-.17l-3.47-3.5v-3.42a.227.227 0 0 0-.01-.04.749.749 0 0 0-.04-.16c0-.02-.01-.04-.01-.06a1.015 1.015 0 0 0-.13-.18l-5.47-5.51a.628.628 0 0 0-.18-.12l-.06-.03a.758.758 0 0 0-.16-.03h-15.25a.606.606 0 0 0-.61.61v8.94l-3.48 3.5a.657.657 0 0 0-.12.17.127.127 0 0 0-.01.06.471.471 0 0 0-.04.16c0 .01-.01.03-.01.04v11.65a.612.612 0 0 0 .61.61h3.05v3.07a.612.612 0 0 0 .61.61h20.7a.619.619 0 0 0 .61-.61v-3.07h3.04a.606.606 0 0 0 .61-.61v-11.65c0-.01-.01-.03-.01-.04zm-2.07-.57h-1.57v-1.59zm-3.66-7.36h-3.4v-3.42zm-18.62-4.29h14.01v4.91a.612.612 0 0 0 .61.61h4.87v6.13h-19.49v-11.65zm-1.21 10.06v1.59h-1.58zm20.7 16.91h-19.49v-2.45h19.49v2.45zm3.65-3.68h-26.79v-10.42h26.79v10.42zm0 0l-16.89-8.14a1.892 1.892 0 0 0-.67-.36 2.673 2.673 0 0 0-.73-.1h-2.02v7.38h1.22v-2.96h.87a2.111 2.111 0 0 0 .74-.14 1.8 1.8 0 0 0 .64-.41 2.055 2.055 0 0 0 .45-.71 2.483 2.483 0 0 0 .18-.98 2.408 2.408 0 0 0-.2-1.04 1.933 1.933 0 0 0-.48-.68zm-.78 2.63a.959.959 0 0 1-.72.31h-.7v-2.35h.7a1 1 0 0 1 .72.27 1.194 1.194 0 0 1 .28.87 1.327 1.327 0 0 1-.28.9zm0 0l8.37 4.29h1.25v-3.17h1.88v-1.07h-1.89v-2.02h2.04v-1.12h-3.28v7.38zm0 0l-4.05-7.38h-1.84v7.38h1.83a2.514 2.514 0 0 0 2.15-.97 4.435 4.435 0 0 0 .73-2.71 4.521 4.521 0 0 0-.73-2.73 2.533 2.533 0 0 0-2.14-.97zm1.51 4.83a2.5 2.5 0 0 1-.34.81 1.4 1.4 0 0 1-.52.48 1.305 1.305 0 0 1-.65.16h-.59v-5.19h.59a1.423 1.423 0 0 1 1.17.65 2.5 2.5 0 0 1 .34.81 4.894 4.894 0 0 1 .12 1.15 4.718 4.718 0 0 1-.12 1.13zm0 0" transform="translate(-1363.75 -1592)"/></svg>