<svg xmlns="http://www.w3.org/2000/svg" width="15" height="21" viewBox="0 0 15 21"><defs><style>.cls-1{fill:#4cc9e8;fill-rule:evenodd}</style></defs><path id="Shape_17_copy" data-name="Shape 17 copy" class="cls-1" d="M299.5 1363a7.536 7.536 0 0 0-7.5 7.59 8.34 8.34 0 0 0 1.105 4.01l4.888 8.56a1.707 1.707 0 0 0 1.507.84 1.743 1.743 0 0 0 1.507-.84l4.888-8.55a8.232 8.232 0 0 0 1.105-4.02 7.542 7.542 0 0 0-7.5-7.59zm0 9.83a2.77 2.77 0 1 1 2.738-2.77 2.757 2.757 0 0 1-2.738 2.77zm0 0" transform="translate(-292 -1363)"/></svg>