<svg xmlns="http://www.w3.org/2000/svg" width="13" height="12" viewBox="0 0 13 12"><defs><style>.cls-1{fill:#28c457;fill-rule:evenodd}</style></defs><path id="download_icon" data-name="download icon" class="cls-1" d="M1687.63 1668.85a.378.378 0 0 0-.38.37v3.38a1.669 1.669 0 0 1-1.66 1.66h-8.18a1.671 1.671 0 0 1-1.67-1.66v-3.43a.363.363 0 0 0-.37-.37.369.369 0 0 0-.37.37v3.43a2.409 2.409 0 0 0 2.41 2.4h8.18a2.409 2.409 0 0 0 2.41-2.4v-3.38a.376.376 0 0 0-.37-.37zm0 0l-6.39 3.2a.362.362 0 0 0 .52 0l2.37-2.35a.368.368 0 0 0 0-.53.387.387 0 0 0-.53 0l-1.73 1.73v-7.53a.37.37 0 0 0-.74 0v7.53l-1.74-1.73a.374.374 0 0 0-.52 0 .368.368 0 0 0 0 .53zm0 0" transform="translate(-1675 -1663)"/></svg>