<svg xmlns="http://www.w3.org/2000/svg" width="29.22" height="29.41" viewBox="0 0 29.22 29.41"><defs><style>.cls-1{fill:#919191;fill-rule:evenodd}</style></defs><path id="doc_jpg_icon" data-name="doc jpg icon" class="cls-1" d="M1392.99 1727.03a.415.415 0 0 0-.03-.16.142.142 0 0 0-.02-.06.544.544 0 0 0-.11-.18h-.01l-3.47-3.49v-3.43a.227.227 0 0 1-.01-.04.5.5 0 0 0-.03-.16.257.257 0 0 1-.02-.05.567.567 0 0 0-.12-.18l-5.48-5.52a.567.567 0 0 0-.18-.12c-.02-.01-.03-.01-.05-.02a.508.508 0 0 0-.17-.03c-.01 0-.02-.01-.03-.01h-15.22a.615.615 0 0 0-.61.62v8.94l-3.47 3.49a.439.439 0 0 0-.12.18.142.142 0 0 0-.02.06.415.415 0 0 0-.03.16.048.048 0 0 0-.01.04v11.64a.615.615 0 0 0 .61.62h3.04v3.06a.606.606 0 0 0 .61.61h20.7a.606.606 0 0 0 .61-.61v-3.06h3.04a.615.615 0 0 0 .61-.62v-11.64a.227.227 0 0 0-.01-.04zm-2.07-.58h-1.57v-1.58zm-3.65-7.35h-3.4v-3.43zm-18.62-4.29h14v4.9a.612.612 0 0 0 .61.61h4.87v6.13h-19.48v-11.64zm-1.22 10.06v1.58h-1.57zm20.7 16.91h-19.48v-2.45h19.48v2.45zm3.65-3.68H1365v-10.42h26.78v10.42zm0 0l-18.57-3.49a2.417 2.417 0 0 1-.14.94.56.56 0 0 1-.57.34.579.579 0 0 1-.48-.22 1.245 1.245 0 0 1-.24-.49l-1.04.44a1.869 1.869 0 0 0 .62 1.05 1.786 1.786 0 0 0 1.18.39 1.694 1.694 0 0 0 1.45-.61 2.881 2.881 0 0 0 .46-1.72v-5.23h-1.24v5.11zm0 0l6.09-4.65a1.639 1.639 0 0 0-.66-.36 2.673 2.673 0 0 0-.73-.1h-2.03v7.37h1.23v-2.95h.87a2.111 2.111 0 0 0 .74-.14 1.7 1.7 0 0 0 .64-.42 2.011 2.011 0 0 0 .45-.7 2.5 2.5 0 0 0 .17-.99 2.478 2.478 0 0 0-.19-1.04 1.911 1.911 0 0 0-.49-.67zm-.78 2.63a.914.914 0 0 1-.71.3h-.7v-2.34h.7a.965.965 0 0 1 .71.27 1.152 1.152 0 0 1 .28.87 1.3 1.3 0 0 1-.28.9zm0 0l4.83 1.18h.89v1.91a.913.913 0 0 1-.33.14 1.532 1.532 0 0 1-.45.06 1.115 1.115 0 0 1-.68-.2 1.713 1.713 0 0 1-.47-.58 3.865 3.865 0 0 1-.28-.87 5.9 5.9 0 0 1-.09-1.06 5.722 5.722 0 0 1 .09-1.03 3.945 3.945 0 0 1 .28-.86 1.859 1.859 0 0 1 .47-.59 1.113 1.113 0 0 1 .67-.21 1.3 1.3 0 0 1 1.12.6l.71-.88a2.138 2.138 0 0 0-.77-.66 2.649 2.649 0 0 0-1.13-.23 2.192 2.192 0 0 0-1.12.28 2.614 2.614 0 0 0-.85.81 4.138 4.138 0 0 0-.54 1.22 6.338 6.338 0 0 0-.18 1.55 6 6 0 0 0 .19 1.58 3.906 3.906 0 0 0 .55 1.22 2.482 2.482 0 0 0 .87.78 2.409 2.409 0 0 0 1.17.28 3.321 3.321 0 0 0 1.11-.17 2.72 2.72 0 0 0 .79-.43v-3.74h-2.02v1.08zm0 0" transform="translate(-1363.78 -1713.59)"/></svg>