<svg xmlns="http://www.w3.org/2000/svg" width="14" height="13" viewBox="0 0 14 13"><defs><style>.cls-1{fill:#919191;fill-rule:evenodd}</style></defs><path id="external_link_icon" data-name="external link icon" class="cls-1" d="M1355.35 1874h-4.1a.626.626 0 0 0-.64.61.634.634 0 0 0 .64.62h2.54l-6.2 5.89a.587.587 0 0 0 0 .86.635.635 0 0 0 .46.19.613.613 0 0 0 .45-.19l6.21-5.88v2.41a.646.646 0 0 0 1.29 0v-3.9a.628.628 0 0 0-.65-.61zm0 0l-2.64 5.12a.628.628 0 0 0-.65.61v6.04h-8.77v-8.33h6.74a.611.611 0 1 0 0-1.22h-7.38a.628.628 0 0 0-.65.61v9.55a.636.636 0 0 0 .65.62h10.06a.634.634 0 0 0 .64-.62v-6.65a.626.626 0 0 0-.64-.61zm0 0" transform="translate(-1342 -1874)"/></svg>