<svg xmlns="http://www.w3.org/2000/svg" width="29.22" height="29.41" viewBox="0 0 29.22 29.41">
  <defs>
    <style>
      .cls-1 {
        fill: #919191;
        fill-rule: evenodd;
      }
    </style>
  </defs>
  <path id="doc_jpg_icon" data-name="doc jpg icon" class="cls-1" d="M1392.99,1727.03a0.415,0.415,0,0,0-.03-0.16,0.142,0.142,0,0,0-.02-0.06,0.544,0.544,0,0,0-.11-0.18h-0.01l-3.47-3.49v-3.43a0.227,0.227,0,0,1-.01-0.04,0.5,0.5,0,0,0-.03-0.16,0.257,0.257,0,0,1-.02-0.05,0.567,0.567,0,0,0-.12-0.18l-5.48-5.52a0.567,0.567,0,0,0-.18-0.12c-0.02-.01-0.03-0.01-0.05-0.02a0.508,0.508,0,0,0-.17-0.03c-0.01,0-.02-0.01-0.03-0.01h-15.22a0.615,0.615,0,0,0-.61.62v8.94l-3.47,3.49a0.439,0.439,0,0,0-.12.18,0.142,0.142,0,0,0-.02.06,0.415,0.415,0,0,0-.03.16,0.048,0.048,0,0,0-.01.04v11.64a0.615,0.615,0,0,0,.61.62h3.04v3.06a0.606,0.606,0,0,0,.61.61h20.7a0.606,0.606,0,0,0,.61-0.61v-3.06h3.04a0.615,0.615,0,0,0,.61-0.62v-11.64a0.227,0.227,0,0,0-.01-0.04h0Zm-2.07-.58h-1.57v-1.58Zm-3.65-7.35h-3.4v-3.43Zm-18.62-4.29h14v4.9a0.612,0.612,0,0,0,.61.61h4.87v6.13h-19.48v-11.64Zm-1.22,10.06v1.58h-1.57Zm20.7,16.91h-19.48v-2.45h19.48v2.45Zm3.65-3.68H1365v-10.42h26.78v10.42Zm0,0-18.57-3.49a2.417,2.417,0,0,1-.14.94,0.56,0.56,0,0,1-.57.34,0.579,0.579,0,0,1-.48-0.22,1.245,1.245,0,0,1-.24-0.49l-1.04.44a1.869,1.869,0,0,0,.62,1.05,1.786,1.786,0,0,0,1.18.39,1.694,1.694,0,0,0,1.45-.61,2.881,2.881,0,0,0,.46-1.72v-5.23h-1.24v5.11Zm0,0,6.09-4.65a1.639,1.639,0,0,0-.66-0.36,2.673,2.673,0,0,0-.73-0.1h-2.03v7.37h1.23v-2.95h0.87a2.111,2.111,0,0,0,.74-0.14,1.7,1.7,0,0,0,.64-0.42,2.011,2.011,0,0,0,.45-0.7,2.5,2.5,0,0,0,.17-0.99,2.478,2.478,0,0,0-.19-1.04,1.911,1.911,0,0,0-.49-0.67h0Zm-0.78,2.63a0.914,0.914,0,0,1-.71.3h-0.7v-2.34h0.7a0.965,0.965,0,0,1,.71.27,1.152,1.152,0,0,1,.28.87,1.3,1.3,0,0,1-.28.9h0Zm0,0,4.83,1.18h0.89v1.91a0.913,0.913,0,0,1-.33.14,1.532,1.532,0,0,1-.45.06,1.115,1.115,0,0,1-.68-0.2,1.713,1.713,0,0,1-.47-0.58,3.865,3.865,0,0,1-.28-0.87,5.9,5.9,0,0,1-.09-1.06,5.722,5.722,0,0,1,.09-1.03,3.945,3.945,0,0,1,.28-0.86,1.859,1.859,0,0,1,.47-0.59,1.113,1.113,0,0,1,.67-0.21,1.3,1.3,0,0,1,1.12.6l0.71-.88a2.138,2.138,0,0,0-.77-0.66,2.649,2.649,0,0,0-1.13-.23,2.192,2.192,0,0,0-1.12.28,2.614,2.614,0,0,0-.85.81,4.138,4.138,0,0,0-.54,1.22,6.338,6.338,0,0,0-.18,1.55,6,6,0,0,0,.19,1.58,3.906,3.906,0,0,0,.55,1.22,2.482,2.482,0,0,0,.87.78,2.409,2.409,0,0,0,1.17.28,3.321,3.321,0,0,0,1.11-.17,2.72,2.72,0,0,0,.79-0.43v-3.74h-2.02v1.08h0Zm0,0" transform="translate(-1363.78 -1713.59)"/>
</svg>
