<svg id="Layer_1" xmlns="http://www.w3.org/2000/svg" viewBox="0 0 80 80"><style>.st0{fill:#010101}</style><path id="XMLID_3_" class="st0" d="M73.7 31.9c-1.9-1.4-3.8-2.8-4.4-4.1-.6-1.4-.2-3.8.2-6.2.6-3.7 1.2-7.5-1.2-9.9s-6.2-1.8-9.9-1.2c-2.4.4-4.8.7-6.2.2-1.3-.5-2.7-2.5-4.1-4.4C46 3.3 43.5 0 40 0s-6 3.3-8.1 6.3c-1.4 1.9-2.8 3.8-4.1 4.4-1.4.6-3.8.2-6.2-.2-3.7-.6-7.5-1.2-9.9 1.2-2.4 2.4-1.8 6.2-1.2 9.9.4 2.4.7 4.8.2 6.2-.5 1.3-2.5 2.7-4.4 4.1C3.3 34 0 36.5 0 40s3.3 6 6.3 8.1c1.9 1.4 3.8 2.8 4.4 4.1.6 1.4.2 3.8-.2 6.2-.6 3.7-1.2 7.5 1.2 9.9s6.2 1.8 9.9 1.2c2.4-.4 4.8-.7 6.2-.2 1.3.5 2.7 2.5 4.1 4.4 2.1 3 4.6 6.3 8.1 6.3s6-3.3 8.1-6.3c1.4-1.9 2.8-3.8 4.1-4.4 1.4-.6 3.8-.2 6.2.2 3.7.6 7.5 1.2 9.9-1.2 2.4-2.4 1.8-6.2 1.2-9.9-.4-2.4-.7-4.8-.2-6.2.5-1.3 2.5-2.7 4.4-4.1 3-2.1 6.3-4.6 6.3-8.1s-3.3-6-6.3-8.1zm-2.2 13.2c-2.3 1.7-4.7 3.4-5.6 5.6-1 2.3-.5 5.3-.1 8.2.4 2.7.9 5.7-.2 6.8-1.1 1.1-4.1.6-6.8.2-2.9-.4-5.9-.9-8.2.1-2.2.9-4 3.3-5.6 5.6-1.6 2.2-3.5 4.8-5.1 4.8-1.7 0-3.5-2.5-5.1-4.8-1.7-2.3-3.4-4.7-5.6-5.6-1-.4-2.1-.6-3.3-.6-1.6 0-3.2.3-4.8.5-2.7.4-5.7.9-6.8-.2s-.6-4.1-.2-6.8c.4-2.9.9-5.9-.1-8.2-.9-2.2-3.3-4-5.6-5.6-2.2-1.6-4.8-3.5-4.8-5.1s2.5-3.5 4.8-5.1c2.3-1.7 4.7-3.4 5.6-5.6 1-2.3.5-5.3.1-8.2-.4-2.7-.9-5.7.2-6.8 1.1-1.1 4.1-.6 6.7-.2 2.9.4 5.9.9 8.2-.1 2.2-.9 4-3.3 5.6-5.6 1.6-2.2 3.5-4.8 5.1-4.8 1.7 0 3.5 2.5 5.1 4.8 1.7 2.3 3.4 4.7 5.6 5.6 2.3 1 5.3.5 8.2.1 2.7-.4 5.7-.9 6.8.2s.6 4.1.2 6.7c-.4 2.9-.9 5.9.1 8.2.9 2.2 3.3 4 5.6 5.6 2.2 1.6 4.8 3.5 4.8 5.1 0 1.8-2.5 3.6-4.8 5.2zM40.1 17C27.4 17 17 27.4 17 40.1s10.4 23.1 23.1 23.1c12.7 0 23.1-10.4 23.1-23.1C63.2 27.4 52.8 17 40.1 17zm0 42.4c-10.7 0-19.3-8.7-19.3-19.3 0-10.7 8.7-19.3 19.3-19.3 10.7 0 19.3 8.7 19.3 19.3 0 10.7-8.6 19.3-19.3 19.3zm0-31.8c-6.9 0-12.5 5.6-12.5 12.5s5.6 12.5 12.5 12.5S52.6 47 52.6 40.1 47 27.6 40.1 27.6zm0 21.2c-4.8 0-8.7-3.9-8.7-8.7 0-4.8 3.9-8.7 8.7-8.7s8.7 3.9 8.7 8.7-3.9 8.7-8.7 8.7z"/></svg>