<?xml version="1.0" encoding="utf-8"?>
<!-- Generator: Adobe Illustrator 19.0.0, SVG Export Plug-In . SVG Version: 6.00 Build 0)  -->
<svg version="1.1" id="Layer_1" xmlns="http://www.w3.org/2000/svg" xmlns:xlink="http://www.w3.org/1999/xlink" x="0px" y="0px"
	 viewBox="0 0 59 80" style="enable-background:new 0 0 59 80;" xml:space="preserve">
<style type="text/css">
	.st0{clip-path:url(#XMLID_25_);}
	.st1{fill:#010101;}
</style>
<g id="XMLID_2_">
	<g id="XMLID_3_">
		<g id="XMLID_4_">
			<defs>
				<rect id="XMLID_11_" x="-737.4" y="-3638" width="5144.3" height="6111.3"/>
			</defs>
			<clipPath id="XMLID_25_">
				<use xlink:href="#XMLID_11_"  style="overflow:visible;"/>
			</clipPath>
			<g id="XMLID_5_" class="st0">
				<path id="XMLID_6_" class="st1" d="M29.6,80h-0.2c-2.7,0-4.7-2.2-4.9-2.5C12.6,63.4,0,47.1,0,30.5C0,13.7,13.3,0.2,29.5,0.2
					S59,13.8,59,30.5c0,16.6-12.7,32.9-24.5,47l0,0C34.5,77.5,32.4,80,29.6,80z M29.5,3.4C14.9,3.4,3.2,15.6,3.2,30.6
					c0,15.6,12.3,31.4,23.7,45c0.3,0.4,1.4,1.4,2.5,1.4h0.2c1.1,0,2.2-1,2.5-1.4c11.5-13.7,23.8-29.4,23.8-45
					C55.8,15.5,44.1,3.4,29.5,3.4z M29.5,47.9c-10.6,0-19.1-8.5-19.1-18.9c0-10.5,8.6-18.9,19.1-18.9S48.6,18.6,48.6,29
					C48.7,39.5,40.1,47.9,29.5,47.9z M29.5,13.1c-8.9,0-16.1,7.1-16.1,15.9s7.2,15.9,16.1,15.9S45.6,37.8,45.6,29
					S38.4,13.1,29.5,13.1z"/>
			</g>
		</g>
	</g>
</g>
</svg>
