<svg id="Layer_1" xmlns="http://www.w3.org/2000/svg" xmlns:xlink="http://www.w3.org/1999/xlink" viewBox="0 0 59 80"><style>.st0{clip-path:url(#XMLID_25_)}.st1{fill:#010101}</style><g id="XMLID_2_"><g id="XMLID_3_"><g id="XMLID_4_"><defs><path id="XMLID_11_" d="M-737.4-3638h5144.3v6111.3H-737.4z"/></defs><clipPath id="XMLID_25_"><use xlink:href="#XMLID_11_" overflow="visible"/></clipPath><g id="XMLID_5_" class="st0"><path id="XMLID_6_" class="st1" d="M29.6 80h-.2c-2.7 0-4.7-2.2-4.9-2.5C12.6 63.4 0 47.1 0 30.5 0 13.7 13.3.2 29.5.2S59 13.8 59 30.5c0 16.6-12.7 32.9-24.5 47 0 0-2.1 2.5-4.9 2.5zm-.1-76.6C14.9 3.4 3.2 15.6 3.2 30.6c0 15.6 12.3 31.4 23.7 45 .3.4 1.4 1.4 2.5 1.4h.2c1.1 0 2.2-1 2.5-1.4 11.5-13.7 23.8-29.4 23.8-45-.1-15.1-11.8-27.2-26.4-27.2zm0 44.5c-10.6 0-19.1-8.5-19.1-18.9 0-10.5 8.6-18.9 19.1-18.9S48.6 18.6 48.6 29c.1 10.5-8.5 18.9-19.1 18.9zm0-34.8c-8.9 0-16.1 7.1-16.1 15.9s7.2 15.9 16.1 15.9S45.6 37.8 45.6 29s-7.2-15.9-16.1-15.9z"/></g></g></g></g></svg>