<?xml version="1.0" encoding="utf-8"?>
<!-- Generator: Adobe Illustrator 19.0.0, SVG Export Plug-In . SVG Version: 6.00 Build 0)  -->
<svg version="1.1" id="Layer_1" xmlns="http://www.w3.org/2000/svg" xmlns:xlink="http://www.w3.org/1999/xlink" x="0px" y="0px"
	 viewBox="-10 0 80.6 80" style="enable-background:new -10 0 80.6 80;" xml:space="preserve">
<path d="M68.6,69.1L51,51.6c0,0-0.3,0-0.3-0.3c3.4-5.1,5.4-11.5,5.4-18.2c0-18.2-14.8-33-33-33s-33,14.8-33,33s14.8,33,33,33
	c6.7,0,12.8-2,18.2-5.4c0,0,0,0.3,0.3,0.3l17.5,17.5c2.7,2.7,6.7,2.7,9.4,0S71.3,71.8,68.6,69.1L68.6,69.1z M23.4,54.6
	C11.6,54.6,1.8,44.9,1.8,33s9.8-21.6,21.6-21.6S45,21.2,45,33C45,45.2,35.2,54.6,23.4,54.6L23.4,54.6z"/>
</svg>
