<svg xmlns="http://www.w3.org/2000/svg" xmlns:xlink="http://www.w3.org/1999/xlink"><defs><path id="XMLID_11_" d="M-737.4-3638h5144.3v6111.3H-737.4z"/></defs><symbol id="arrow-right" viewBox="0 10 80.6 62"><path d="M79.2 37.6L52.7 11.4c-1.9-1.9-5-1.9-6.9 0s-1.9 5 0 6.8l18.1 17.9h-59c-2.7 0-4.9 2.2-4.9 4.8 0 2.7 2.2 4.8 4.9 4.8h58.9l-18.1 18c-1.9 1.9-1.9 5 0 6.9 1 .9 2.2 1.4 3.5 1.4s2.5-.5 3.5-1.4l26.5-26.2c1.9-1.9 1.9-4.9 0-6.8z"/></symbol><symbol id="gear icon" viewBox="0 0 80 80"><style>.st0{fill:#010101}</style><path id="XMLID_3_" class="st0" d="M73.7 31.9c-1.9-1.4-3.8-2.8-4.4-4.1-.6-1.4-.2-3.8.2-6.2.6-3.7 1.2-7.5-1.2-9.9s-6.2-1.8-9.9-1.2c-2.4.4-4.8.7-6.2.2-1.3-.5-2.7-2.5-4.1-4.4C46 3.3 43.5 0 40 0s-6 3.3-8.1 6.3c-1.4 1.9-2.8 3.8-4.1 4.4-1.4.6-3.8.2-6.2-.2-3.7-.6-7.5-1.2-9.9 1.2-2.4 2.4-1.8 6.2-1.2 9.9.4 2.4.7 4.8.2 6.2-.5 1.3-2.5 2.7-4.4 4.1C3.3 34 0 36.5 0 40s3.3 6 6.3 8.1c1.9 1.4 3.8 2.8 4.4 4.1.6 1.4.2 3.8-.2 6.2-.6 3.7-1.2 7.5 1.2 9.9s6.2 1.8 9.9 1.2c2.4-.4 4.8-.7 6.2-.2 1.3.5 2.7 2.5 4.1 4.4 2.1 3 4.6 6.3 8.1 6.3s6-3.3 8.1-6.3c1.4-1.9 2.8-3.8 4.1-4.4 1.4-.6 3.8-.2 6.2.2 3.7.6 7.5 1.2 9.9-1.2 2.4-2.4 1.8-6.2 1.2-9.9-.4-2.4-.7-4.8-.2-6.2.5-1.3 2.5-2.7 4.4-4.1 3-2.1 6.3-4.6 6.3-8.1s-3.3-6-6.3-8.1zm-2.2 13.2c-2.3 1.7-4.7 3.4-5.6 5.6-1 2.3-.5 5.3-.1 8.2.4 2.7.9 5.7-.2 6.8-1.1 1.1-4.1.6-6.8.2-2.9-.4-5.9-.9-8.2.1-2.2.9-4 3.3-5.6 5.6-1.6 2.2-3.5 4.8-5.1 4.8-1.7 0-3.5-2.5-5.1-4.8-1.7-2.3-3.4-4.7-5.6-5.6-1-.4-2.1-.6-3.3-.6-1.6 0-3.2.3-4.8.5-2.7.4-5.7.9-6.8-.2s-.6-4.1-.2-6.8c.4-2.9.9-5.9-.1-8.2-.9-2.2-3.3-4-5.6-5.6-2.2-1.6-4.8-3.5-4.8-5.1s2.5-3.5 4.8-5.1c2.3-1.7 4.7-3.4 5.6-5.6 1-2.3.5-5.3.1-8.2-.4-2.7-.9-5.7.2-6.8 1.1-1.1 4.1-.6 6.7-.2 2.9.4 5.9.9 8.2-.1 2.2-.9 4-3.3 5.6-5.6 1.6-2.2 3.5-4.8 5.1-4.8 1.7 0 3.5 2.5 5.1 4.8 1.7 2.3 3.4 4.7 5.6 5.6 2.3 1 5.3.5 8.2.1 2.7-.4 5.7-.9 6.8.2s.6 4.1.2 6.7c-.4 2.9-.9 5.9.1 8.2.9 2.2 3.3 4 5.6 5.6 2.2 1.6 4.8 3.5 4.8 5.1 0 1.8-2.5 3.6-4.8 5.2zM40.1 17C27.4 17 17 27.4 17 40.1s10.4 23.1 23.1 23.1c12.7 0 23.1-10.4 23.1-23.1C63.2 27.4 52.8 17 40.1 17zm0 42.4c-10.7 0-19.3-8.7-19.3-19.3 0-10.7 8.7-19.3 19.3-19.3 10.7 0 19.3 8.7 19.3 19.3 0 10.7-8.6 19.3-19.3 19.3zm0-31.8c-6.9 0-12.5 5.6-12.5 12.5s5.6 12.5 12.5 12.5S52.6 47 52.6 40.1 47 27.6 40.1 27.6zm0 21.2c-4.8 0-8.7-3.9-8.7-8.7 0-4.8 3.9-8.7 8.7-8.7s8.7 3.9 8.7 8.7-3.9 8.7-8.7 8.7z"/></symbol><symbol id="placeholder-filled-point" viewBox="0 0 59 80"><style>.st0{clip-path:url(#XMLID_25_)}.st1{fill:#010101}</style><g id="XMLID_2_"><g id="XMLID_3_"><g id="XMLID_4_"><clipPath id="XMLID_25_"><use xlink:href="#XMLID_11_" overflow="visible"/></clipPath><g id="XMLID_5_" class="st0"><path id="XMLID_6_" class="st1" d="M29.6 80h-.2c-2.7 0-4.7-2.2-4.9-2.5C12.6 63.4 0 47.1 0 30.5 0 13.7 13.3.2 29.5.2S59 13.8 59 30.5c0 16.6-12.7 32.9-24.5 47 0 0-2.1 2.5-4.9 2.5zm-.1-76.6C14.9 3.4 3.2 15.6 3.2 30.6c0 15.6 12.3 31.4 23.7 45 .3.4 1.4 1.4 2.5 1.4h.2c1.1 0 2.2-1 2.5-1.4 11.5-13.7 23.8-29.4 23.8-45-.1-15.1-11.8-27.2-26.4-27.2zm0 44.5c-10.6 0-19.1-8.5-19.1-18.9 0-10.5 8.6-18.9 19.1-18.9S48.6 18.6 48.6 29c.1 10.5-8.5 18.9-19.1 18.9zm0-34.8c-8.9 0-16.1 7.1-16.1 15.9s7.2 15.9 16.1 15.9S45.6 37.8 45.6 29s-7.2-15.9-16.1-15.9z"/></g></g></g></g></symbol><symbol id="search" viewBox="-10 0 80.6 80"><path d="M68.6 69.1L51 51.6s-.3 0-.3-.3c3.4-5.1 5.4-11.5 5.4-18.2 0-18.2-14.8-33-33-33s-33 14.8-33 33 14.8 33 33 33c6.7 0 12.8-2 18.2-5.4 0 0 0 .3.3.3l17.5 17.5c2.7 2.7 6.7 2.7 9.4 0s2.8-6.7.1-9.4zM23.4 54.6C11.6 54.6 1.8 44.9 1.8 33s9.8-21.6 21.6-21.6S45 21.2 45 33c0 12.2-9.8 21.6-21.6 21.6z"/></symbol><symbol id="star" viewBox="0 10 80.6 80.7"><path d="M17.3 90.4l22.1-17c.5-.4 1.3-.4 1.8 0l22.1 17c1.1.9 2.7-.2 2.3-1.5L57 61c-.2-.6 0-1.2.5-1.5L80 42.1c1.1-.8.5-2.5-.9-2.5H51.5c-.6 0-1.2-.4-1.4-1L41.7 11c-.4-1.4-2.4-1.4-2.8 0l-8.4 27.6c-.2.6-.8 1-1.4 1H1.5c-1.4 0-2 1.7-.9 2.5l22.5 17.3c.5.4.7 1 .5 1.5l-8.6 28c-.4 1.3 1.2 2.4 2.3 1.5z"/></symbol></svg>